<svg width="30" height="23" viewBox="0 0 30 23" fill="none" xmlns="http://www.w3.org/2000/svg">
<path d="M2.98825 20.5441L2.16878 21.3916H3.34771H26.334H27.5129L26.6934 20.5441L18.9532 12.5387L18.5934 12.1666L18.234 12.539C17.5758 13.221 17.0768 13.7398 16.8302 13.9992C16.3015 14.5217 15.5884 14.8153 14.8449 14.8164C14.1012 14.8175 13.387 14.5258 12.8567 14.0046L11.4483 12.5397L11.0889 12.1659L10.7284 12.5387L2.98825 20.5441ZM19.6239 11.0989L19.2881 11.4464L19.624 11.7938L27.3222 19.7562L28.1817 20.6452V19.4087V3.48633V2.25037L27.3223 3.13868C26.9486 3.52502 26.5654 3.92111 26.1756 4.32396C24.0283 6.54351 21.6824 8.96832 19.6239 11.0989ZM2.35945 3.13536L1.5 2.24647V3.48291V19.4087V20.6451L2.35945 19.7562L10.0587 11.7934L10.3947 11.4458L10.0587 11.0982L2.35945 3.13536ZM13.579 13.3129L13.5843 13.3183L13.5897 13.3237C13.9247 13.6515 14.375 13.8348 14.8437 13.834C15.3124 13.8332 15.7621 13.6485 16.096 13.3196L16.0961 13.3197L16.1058 13.3097C18.2267 11.1003 20.9485 8.28808 23.5134 5.63781C24.6243 4.48993 25.7059 3.37244 26.6964 2.34748L27.5155 1.50001H26.3369H3.34766H2.16868L2.98821 2.34757L11.455 11.1039L11.456 11.1049L13.579 13.3129ZM26.4673 22.3916H3.21439C2.49472 22.3909 1.80474 22.1046 1.29585 21.5957C0.787024 21.0869 0.500812 20.397 0.5 19.6775V3.21414C0.500812 2.49456 0.787024 1.80468 1.29585 1.29585C1.80468 0.787024 2.49456 0.500812 3.21414 0.5H26.8513C27.4692 0.500651 28.0615 0.746373 28.4984 1.18325C28.9353 1.62019 29.1811 2.21263 29.1816 2.83056V19.6772C29.1809 20.3969 28.8947 21.0868 28.3858 21.5957C27.8769 22.1046 27.187 22.3908 26.4673 22.3916Z" fill="#1C1C1C" stroke="white"/>
</svg>
