<svg width="50" height="50" viewBox="0 0 50 50" fill="none" xmlns="http://www.w3.org/2000/svg">
<path d="M45.2202 23.3036C45.2202 12.5589 36.4793 3.81747 25.7351 3.81747C14.9904 3.81747 6.24901 12.5589 6.24901 23.3036C6.24901 34.0477 14.9904 42.7887 25.7351 42.7887C36.4793 42.7887 45.2202 34.0477 45.2202 23.3036ZM25.7351 41.9951C15.428 41.9951 7.04266 33.61 7.04266 23.3036C7.04266 12.9965 15.428 4.61113 25.7351 4.61113C36.0417 4.61113 44.4266 12.9965 44.4266 23.3036C44.4266 33.6101 36.0417 41.9951 25.7351 41.9951Z" fill="url(#paint0_linear_29_35)"/>
<path d="M25.7351 6.78671C16.6277 6.78671 9.21826 14.1961 9.21826 23.3036C9.21826 32.4104 16.6278 39.8195 25.7351 39.8195C34.842 39.8195 42.2509 32.4104 42.2509 23.3036C42.251 14.1961 34.842 6.78671 25.7351 6.78671ZM25.4658 25.4542C25.3905 25.3697 25.2827 25.3214 25.1697 25.3214H18.1384L26.9486 11.7825L25.9054 20.8425C25.8924 20.9549 25.9281 21.0675 26.0034 21.1519C26.0787 21.2364 26.1864 21.2846 26.2995 21.2846H33.3308L24.5213 34.8236L25.5638 25.7635C25.5768 25.6512 25.5412 25.5387 25.4658 25.4542Z" fill="url(#paint1_linear_29_35)"/>
<path d="M6.73214 8.00497H8.45635C9.37698 8.00497 10.126 7.25596 10.126 6.33533C10.126 5.41469 9.37698 4.66568 8.45635 4.66568H6.73214V2.94247C6.73214 2.02184 5.98313 1.27283 5.0625 1.27283C4.14246 1.27283 3.39385 2.02184 3.39385 2.94247V4.66568H1.66964C0.749008 4.66568 0 5.41469 0 6.33533C0 7.25596 0.749008 8.00497 1.66964 8.00497H3.39385V9.72918C3.39385 10.6498 4.14246 11.3988 5.0625 11.3988C5.98313 11.3988 6.73214 10.6498 6.73214 9.72918V8.00497Z" fill="url(#paint2_linear_29_35)"/>
<path d="M12.1607 4.18751H13.4603V5.48712C13.4603 5.70626 13.638 5.88394 13.8571 5.88394C14.0763 5.88394 14.254 5.70626 14.254 5.48712V4.18751H15.5546C15.7737 4.18751 15.9514 4.00983 15.9514 3.79069C15.9514 3.57154 15.7737 3.39386 15.5546 3.39386H14.254V2.09327C14.254 1.87412 14.0763 1.69644 13.8571 1.69644C13.638 1.69644 13.4603 1.87412 13.4603 2.09327V3.39386H12.1607C11.9416 3.39386 11.7639 3.57154 11.7639 3.79069C11.7639 4.00983 11.9416 4.18751 12.1607 4.18751Z" fill="url(#paint3_linear_29_35)"/>
<path d="M48.3304 3.39385H46.6062V1.66964C46.6062 0.749008 45.8575 0 44.9375 0C44.0169 0 43.2679 0.749008 43.2679 1.66964V3.39385H41.5437C40.623 3.39385 39.874 4.14236 39.874 5.0625C39.874 5.98313 40.623 6.73214 41.5437 6.73214H43.2679V8.45635C43.2679 9.37698 44.0169 10.126 44.9375 10.126C45.8575 10.126 46.6062 9.37698 46.6062 8.45635V6.73214H48.3304C49.251 6.73214 50 5.98313 50 5.0625C50 4.14236 49.251 3.39385 48.3304 3.39385Z" fill="url(#paint4_linear_29_35)"/>
<path d="M35.6052 2.9147H36.9048V4.2143C36.9048 4.43345 37.0824 4.61113 37.3016 4.61113C37.5207 4.61113 37.6984 4.43345 37.6984 4.2143V2.9147H38.998C39.2172 2.9147 39.3948 2.73702 39.3948 2.51788C39.3948 2.29873 39.2172 2.12105 38.998 2.12105H37.6984V0.821447C37.6984 0.6023 37.5207 0.424622 37.3016 0.424622C37.0824 0.424622 36.9048 0.6023 36.9048 0.821447V2.12105H35.6052C35.386 2.12105 35.2083 2.29873 35.2083 2.51788C35.2083 2.73702 35.386 2.9147 35.6052 2.9147Z" fill="url(#paint5_linear_29_35)"/>
<path d="M2.38096 18.2401C2.16181 18.2401 1.98413 18.4178 1.98413 18.6369V49.6032C1.98413 49.8223 2.16181 50 2.38096 50C2.6001 50 2.77778 49.8223 2.77778 49.6032V18.6369C2.77778 18.4178 2.6001 18.2401 2.38096 18.2401Z" fill="url(#paint6_linear_29_35)"/>
<path d="M7.53968 36.4802C7.32053 36.4802 7.14285 36.6578 7.14285 36.877V49.6032C7.14285 49.8223 7.32053 50 7.53968 50C7.75883 50 7.9365 49.8223 7.9365 49.6032V36.877C7.9365 36.6578 7.75883 36.4802 7.53968 36.4802Z" fill="url(#paint7_linear_29_35)"/>
<path d="M18.0992 42.8433C17.8801 42.8433 17.7024 43.0209 17.7024 43.2401V49.6032C17.7024 49.8223 17.8801 50 18.0992 50C18.3183 50 18.496 49.8223 18.496 49.6032V43.2401C18.496 43.0209 18.3183 42.8433 18.0992 42.8433Z" fill="url(#paint8_linear_29_35)"/>
<path d="M32.5218 42.8433C32.3027 42.8433 32.125 43.0209 32.125 43.2401V49.6032C32.125 49.8223 32.3027 50 32.5218 50C32.741 50 32.9187 49.8223 32.9187 49.6032V43.2401C32.9187 43.0209 32.741 42.8433 32.5218 42.8433Z" fill="url(#paint9_linear_29_35)"/>
<path d="M14.7054 42.5943H13.4058V41.2947C13.4058 41.0755 13.2281 40.8978 13.0089 40.8978C12.7898 40.8978 12.6121 41.0755 12.6121 41.2947V42.5943H11.3125C11.0934 42.5943 10.9157 42.7719 10.9157 42.9911C10.9157 43.2102 11.0934 43.3879 11.3125 43.3879H12.6121V44.6875C12.6121 44.9067 12.7898 45.0843 13.0089 45.0843C13.2281 45.0843 13.4058 44.9067 13.4058 44.6875V43.3879H14.7055C14.9246 43.3879 15.1023 43.2102 15.1023 42.9911C15.1023 42.7719 14.9245 42.5943 14.7054 42.5943Z" fill="url(#paint10_linear_29_35)"/>
<path d="M48.8095 13.5744C48.5904 13.5744 48.4127 13.7521 48.4127 13.9712V37.3016C48.4127 37.5207 48.5904 37.6984 48.8095 37.6984C49.0287 37.6984 49.2064 37.5207 49.2064 37.3016V13.9712C49.2064 13.7521 49.0287 13.5744 48.8095 13.5744Z" fill="url(#paint11_linear_29_35)"/>
<path d="M47.5367 39.4504H45.8125V37.7262C45.8125 36.8055 45.0639 36.0565 44.1438 36.0565C43.2232 36.0565 42.4742 36.8055 42.4742 37.7262V39.4504H40.75C39.8294 39.4504 39.0804 40.1989 39.0804 41.119C39.0804 42.0397 39.8294 42.7887 40.75 42.7887H42.4742V44.5129C42.4742 45.4335 43.2232 46.1825 44.1438 46.1825C45.0639 46.1825 45.8125 45.4335 45.8125 44.5129V42.7887H47.5367C48.4573 42.7887 49.2063 42.0397 49.2063 41.119C49.2063 40.199 48.4573 39.4504 47.5367 39.4504Z" fill="url(#paint12_linear_29_35)"/>
<path d="M38.0367 44.5407H36.7361V43.2401C36.7361 43.0209 36.5584 42.8433 36.3393 42.8433C36.1201 42.8433 35.9425 43.0209 35.9425 43.2401V44.5407H34.6429C34.4237 44.5407 34.246 44.7184 34.246 44.9375C34.246 45.1567 34.4237 45.3343 34.6429 45.3343H35.9425V46.6339C35.9425 46.8531 36.1201 47.0308 36.3393 47.0308C36.5584 47.0308 36.7361 46.8531 36.7361 46.6339V45.3343H38.0367C38.2559 45.3343 38.4335 45.1567 38.4335 44.9375C38.4335 44.7184 38.2559 44.5407 38.0367 44.5407Z" fill="url(#paint13_linear_29_35)"/>
<path d="M40.4762 44.9643C40.257 44.9643 40.0794 45.142 40.0794 45.3611V49.6032C40.0794 49.8223 40.257 50 40.4762 50C40.6953 50 40.873 49.8223 40.873 49.6032V45.3611C40.873 45.142 40.6953 44.9643 40.4762 44.9643Z" fill="url(#paint14_linear_29_35)"/>
<path d="M48.8095 43.6915C48.5904 43.6915 48.4127 43.8691 48.4127 44.0883V49.6032C48.4127 49.8223 48.5904 50 48.8095 50C49.0287 50 49.2064 49.8223 49.2064 49.6032V44.0883C49.2064 43.8691 49.0287 43.6915 48.8095 43.6915Z" fill="url(#paint15_linear_29_35)"/>
<defs>
<linearGradient id="paint0_linear_29_35" x1="7.29823" y1="24.8769" x2="44.6956" y2="24.8769" gradientUnits="userSpaceOnUse">
<stop stop-color="#FF6400"/>
<stop offset="1" stop-color="#FF0045"/>
</linearGradient>
<linearGradient id="paint1_linear_29_35" x1="10.1076" y1="24.6371" x2="41.8062" y2="24.6371" gradientUnits="userSpaceOnUse">
<stop stop-color="#FF6400"/>
<stop offset="1" stop-color="#FF0045"/>
</linearGradient>
<linearGradient id="paint2_linear_29_35" x1="0.272623" y1="6.74476" x2="9.98968" y2="6.74476" gradientUnits="userSpaceOnUse">
<stop stop-color="#FF6400"/>
<stop offset="1" stop-color="#FF0045"/>
</linearGradient>
<linearGradient id="paint3_linear_29_35" x1="11.8766" y1="3.9593" x2="15.895" y2="3.9593" gradientUnits="userSpaceOnUse">
<stop stop-color="#FF6400"/>
<stop offset="1" stop-color="#FF0045"/>
</linearGradient>
<linearGradient id="paint4_linear_29_35" x1="40.1466" y1="5.47193" x2="49.8637" y2="5.47193" gradientUnits="userSpaceOnUse">
<stop stop-color="#FF6400"/>
<stop offset="1" stop-color="#FF0045"/>
</linearGradient>
<linearGradient id="paint5_linear_29_35" x1="35.321" y1="2.68695" x2="39.3385" y2="2.68695" gradientUnits="userSpaceOnUse">
<stop stop-color="#FF6400"/>
<stop offset="1" stop-color="#FF0045"/>
</linearGradient>
<linearGradient id="paint6_linear_29_35" x1="2.0055" y1="35.4027" x2="2.7671" y2="35.4027" gradientUnits="userSpaceOnUse">
<stop stop-color="#FF6400"/>
<stop offset="1" stop-color="#FF0045"/>
</linearGradient>
<linearGradient id="paint7_linear_29_35" x1="7.16422" y1="43.7861" x2="7.92582" y2="43.7861" gradientUnits="userSpaceOnUse">
<stop stop-color="#FF6400"/>
<stop offset="1" stop-color="#FF0045"/>
</linearGradient>
<linearGradient id="paint8_linear_29_35" x1="17.7237" y1="46.7107" x2="18.4853" y2="46.7107" gradientUnits="userSpaceOnUse">
<stop stop-color="#FF6400"/>
<stop offset="1" stop-color="#FF0045"/>
</linearGradient>
<linearGradient id="paint9_linear_29_35" x1="32.1464" y1="46.7107" x2="32.908" y2="46.7107" gradientUnits="userSpaceOnUse">
<stop stop-color="#FF6400"/>
<stop offset="1" stop-color="#FF0045"/>
</linearGradient>
<linearGradient id="paint10_linear_29_35" x1="11.0284" y1="43.1602" x2="15.0459" y2="43.1602" gradientUnits="userSpaceOnUse">
<stop stop-color="#FF6400"/>
<stop offset="1" stop-color="#FF0045"/>
</linearGradient>
<linearGradient id="paint11_linear_29_35" x1="48.4341" y1="26.6106" x2="49.1957" y2="26.6106" gradientUnits="userSpaceOnUse">
<stop stop-color="#FF6400"/>
<stop offset="1" stop-color="#FF0045"/>
</linearGradient>
<linearGradient id="paint12_linear_29_35" x1="39.353" y1="41.5284" x2="49.07" y2="41.5284" gradientUnits="userSpaceOnUse">
<stop stop-color="#FF6400"/>
<stop offset="1" stop-color="#FF0045"/>
</linearGradient>
<linearGradient id="paint13_linear_29_35" x1="34.3588" y1="45.1061" x2="38.3772" y2="45.1061" gradientUnits="userSpaceOnUse">
<stop stop-color="#FF6400"/>
<stop offset="1" stop-color="#FF0045"/>
</linearGradient>
<linearGradient id="paint14_linear_29_35" x1="40.1007" y1="47.6855" x2="40.8623" y2="47.6855" gradientUnits="userSpaceOnUse">
<stop stop-color="#FF6400"/>
<stop offset="1" stop-color="#FF0045"/>
</linearGradient>
<linearGradient id="paint15_linear_29_35" x1="48.4341" y1="47.1005" x2="49.1957" y2="47.1005" gradientUnits="userSpaceOnUse">
<stop stop-color="#FF6400"/>
<stop offset="1" stop-color="#FF0045"/>
</linearGradient>
</defs>
</svg>
