<svg width="25" height="42" viewBox="0 0 25 42" fill="none" xmlns="http://www.w3.org/2000/svg">
<path d="M23.4375 25.5087C23.0231 25.5087 22.6257 25.6667 22.3326 25.948C22.0396 26.2293 21.875 26.6109 21.875 27.0087V28.5087H20.4219L21.875 9.1137C21.8914 8.89888 21.8594 8.68319 21.7812 8.4813C21.703 8.27941 21.5805 8.09605 21.4219 7.9437L13.6094 0.443697C13.4641 0.303105 13.2913 0.191513 13.1009 0.11536C12.9105 0.0392074 12.7063 0 12.5 0C12.2937 0 12.0895 0.0392074 11.8991 0.11536C11.7087 0.191513 11.5359 0.303105 11.3906 0.443697L3.57812 7.9437C3.41952 8.09605 3.29696 8.27941 3.21877 8.4813C3.14058 8.68319 3.1086 8.89888 3.125 9.1137L4.57813 28.5087H3.125V27.0087C3.125 26.6109 2.96038 26.2293 2.66735 25.948C2.37433 25.6667 1.9769 25.5087 1.5625 25.5087C1.1481 25.5087 0.750672 25.6667 0.457646 25.948C0.16462 26.2293 0 26.6109 0 27.0087V28.5087C0 29.3043 0.329241 30.0674 0.915292 30.63C1.50134 31.1926 2.2962 31.5087 3.125 31.5087H7.8125V40.5087C7.8125 40.9065 7.97712 41.2881 8.27015 41.5694C8.56317 41.8507 8.9606 42.0087 9.375 42.0087H15.625C16.0394 42.0087 16.4368 41.8507 16.7299 41.5694C17.0229 41.2881 17.1875 40.9065 17.1875 40.5087V31.5087H21.875C22.7038 31.5087 23.4987 31.1926 24.0847 30.63C24.6708 30.0674 25 29.3043 25 28.5087V27.0087C25 26.6109 24.8354 26.2293 24.5424 25.948C24.2493 25.6667 23.8519 25.5087 23.4375 25.5087ZM6.25 9.5787L10.9375 5.0787V28.5087H7.70313L6.25 9.5787ZM14.0625 39.0087H10.9375V31.5087H14.0625V39.0087ZM14.0625 28.5087V5.1237L18.75 9.6237L17.2969 28.5087H14.0625Z" fill="url(#paint0_linear_29_96)"/>
<defs>
<linearGradient id="paint0_linear_29_96" x1="0" y1="24.5" x2="25" y2="24.5" gradientUnits="userSpaceOnUse">
<stop stop-color="#FE6001"/>
<stop offset="1" stop-color="#FE073F"/>
</linearGradient>
</defs>
</svg>
