<svg width="50" height="50" viewBox="0 0 50 50" fill="none" xmlns="http://www.w3.org/2000/svg">
<path d="M14.9984 11.7616L15.9342 13.095C16.6702 12.6244 16.9276 12.0022 17.0388 11.4239C17.0866 11.1755 17.1099 10.9339 17.1279 10.7178C17.1838 10.0422 17.2374 9.76664 17.5804 9.54719C17.9234 9.32831 18.2122 9.38608 18.8865 9.59331C19.1031 9.65997 19.346 9.73108 19.6051 9.78331C20.2078 9.90553 20.9095 9.91553 21.6449 9.44553C22.3804 8.97553 22.6378 8.35331 22.7484 7.77497C22.7962 7.52664 22.8194 7.28497 22.8369 7.06886C22.8922 6.39386 22.9458 6.11831 23.2882 5.89942C23.6306 5.68108 23.9177 5.73831 24.592 5.9472C24.808 6.01386 25.0509 6.08553 25.31 6.13831C25.9121 6.26108 26.6132 6.27108 27.3487 5.80108L26.4129 4.46831C26.0711 4.68608 25.784 4.62831 25.1085 4.42053C24.3888 4.19886 23.4035 3.89553 22.3519 4.56664C21.3002 5.23831 21.2187 6.22386 21.1599 6.94331C21.1045 7.61831 21.051 7.89386 20.7086 8.11275C20.3656 8.33164 20.0779 8.27497 19.4019 8.06664C18.6821 7.84608 17.6957 7.54275 16.644 8.21442C15.5918 8.88664 15.5103 9.8722 15.4509 10.5916C15.395 11.2666 15.3414 11.5428 14.9984 11.7616Z" fill="url(#paint0_linear_29_102)"/>
<path d="M36.9202 10.5356C37.1781 10.4794 37.4204 10.405 37.6358 10.335C38.3078 10.1178 38.5961 10.0561 38.9414 10.27C39.2884 10.4844 39.3461 10.7594 39.4125 11.4344C39.434 11.6506 39.4608 11.8911 39.5126 12.1389C39.6326 12.7156 39.8993 13.3344 40.6429 13.7944C41.3865 14.2544 42.087 14.2344 42.688 14.1033C42.9459 14.0467 43.1876 13.9722 43.4025 13.9022C44.075 13.685 44.3615 13.6233 44.7069 13.8367C45.0522 14.0506 45.1092 14.325 45.175 14.9983C45.196 15.2144 45.2234 15.4556 45.2746 15.7033C45.394 16.28 45.6607 16.8983 46.4031 17.3578L47.3185 16.0117C46.9732 15.7978 46.9156 15.5233 46.8498 14.8494C46.7799 14.1311 46.6838 13.1472 45.6222 12.4906C44.5595 11.8328 43.5789 12.1511 42.8621 12.3822C42.1901 12.6 41.9042 12.6617 41.5577 12.4478C41.2112 12.2333 41.1536 11.9583 41.0866 11.2839C41.0162 10.5656 40.9189 9.58111 39.8568 8.92389C38.7935 8.26611 37.8129 8.58334 37.0966 8.815C36.4246 9.03223 36.1375 9.09389 35.7911 8.88L34.8757 10.2261C35.6181 10.6861 36.3192 10.6667 36.9202 10.5356Z" fill="url(#paint1_linear_29_102)"/>
<path d="M42.8155 1.83278C43.0536 2.05944 43.4403 2.05944 43.6785 1.83278C43.916 1.60611 43.916 1.23611 43.6785 1.00944L42.7992 0.170556C42.6839 0.0605556 42.5307 0 42.3677 0C42.2046 0 42.0515 0.0605556 41.9362 0.170556C41.8209 0.280556 41.7574 0.426667 41.7574 0.582222C41.7574 0.737778 41.8209 0.883889 41.9362 0.993889L42.8155 1.83278Z" fill="url(#paint2_linear_29_102)"/>
<path d="M45.5663 4.45723C45.7969 4.67723 46.1987 4.67723 46.4293 4.45723C46.5446 4.34723 46.6081 4.20112 46.6081 4.04556C46.6081 3.89001 46.5446 3.7439 46.4293 3.6339L45.55 2.79501C45.4347 2.68501 45.2816 2.62445 45.1185 2.62445C44.9555 2.62445 44.8023 2.68501 44.687 2.79501C44.5717 2.90501 44.5082 3.05112 44.5082 3.20667C44.5082 3.36223 44.5717 3.50834 44.687 3.61834L45.5663 4.45723Z" fill="url(#paint3_linear_29_102)"/>
<path d="M43.247 2.625C43.0909 2.625 42.9343 2.68167 42.8155 2.795L41.9362 3.63389C41.6986 3.86056 41.6986 4.23 41.9362 4.45722C42.1743 4.68444 42.5616 4.68389 42.7992 4.45722L43.6785 3.61833C43.916 3.39167 43.916 3.02167 43.6785 2.795C43.5597 2.68167 43.403 2.625 43.247 2.625Z" fill="url(#paint4_linear_29_102)"/>
<path d="M45.55 1.83222L46.4293 0.993333C46.5446 0.883333 46.6081 0.737222 46.6081 0.581667C46.6081 0.426111 46.5446 0.28 46.4293 0.17C46.314 0.0605557 46.1609 0 45.9978 0C45.8348 0 45.6816 0.0605556 45.5663 0.170556L44.687 1.00944C44.5717 1.11944 44.5083 1.26556 44.5083 1.42111C44.5083 1.57667 44.5717 1.72278 44.687 1.83278C44.9176 2.05167 45.3194 2.05222 45.55 1.83222Z" fill="url(#paint5_linear_29_102)"/>
<path d="M2.91368 9.25056C3.15185 9.47722 3.53908 9.47722 3.77667 9.25056C4.01425 9.02389 4.01425 8.65389 3.77667 8.42722L2.89738 7.58833C2.77858 7.475 2.62252 7.41833 2.46588 7.41833C2.30982 7.41833 2.15376 7.475 2.03439 7.58833C1.79681 7.815 1.79681 8.185 2.03439 8.41167L2.91368 9.25056Z" fill="url(#paint6_linear_29_102)"/>
<path d="M5.66453 11.875C5.89513 12.095 6.29693 12.095 6.52752 11.875C6.64282 11.765 6.70629 11.6189 6.70629 11.4633C6.70629 11.3078 6.64282 11.1617 6.52752 11.0517L5.64823 10.2128C5.52944 10.0995 5.3728 10.0428 5.21674 10.0428C5.06068 10.0428 4.90462 10.0995 4.78524 10.2128C4.54766 10.4395 4.54766 10.8089 4.78524 11.0361L5.66453 11.875Z" fill="url(#paint7_linear_29_102)"/>
<path d="M2.89738 11.875L3.77667 11.0361C4.01425 10.8095 4.01425 10.4395 3.77667 10.2128C3.65788 10.0995 3.50182 10.0428 3.34517 10.0428C3.18911 10.0428 3.03305 10.0995 2.91368 10.2128L2.03439 11.0517C1.79681 11.2783 1.79681 11.6478 2.03439 11.875C2.27255 12.1028 2.65979 12.1022 2.89738 11.875Z" fill="url(#paint8_linear_29_102)"/>
<path d="M5.64823 9.25056L6.52752 8.41168C6.64282 8.30168 6.70629 8.15556 6.70629 8.00001C6.70629 7.84445 6.64282 7.69834 6.52752 7.58834C6.41222 7.47834 6.25908 7.41779 6.09603 7.41779C5.93298 7.41779 5.77983 7.47834 5.66453 7.58834L4.78524 8.42723C4.54766 8.6539 4.54766 9.02334 4.78524 9.25056C5.02399 9.47779 5.41065 9.47723 5.64823 9.25056Z" fill="url(#paint9_linear_29_102)"/>
<path d="M12.5067 6.2539C14.157 6.2539 15.4998 4.97279 15.4998 3.39834C15.4998 1.8239 14.157 0.542786 12.5067 0.542786C10.8564 0.542786 9.51361 1.8239 9.51361 3.39834C9.51361 4.97334 10.8564 6.2539 12.5067 6.2539ZM12.5067 2.14779C13.2299 2.14779 13.8181 2.7089 13.8181 3.3989C13.8181 4.0889 13.2299 4.65001 12.5067 4.65001C11.784 4.65001 11.1953 4.0889 11.1953 3.3989C11.1959 2.7089 11.784 2.14779 12.5067 2.14779Z" fill="url(#paint10_linear_29_102)"/>
<path d="M38.6246 34.9189C38.7806 32.6022 36.9044 30.1911 34.5286 29.6433C31.5553 29.02 28.5273 28.7067 25.5068 28.7067C22.4858 28.7067 19.4584 29.02 16.5078 29.6383C14.1086 30.1917 12.2324 32.6028 12.3879 34.9083C12.5789 37.355 12.7693 39.8439 12.9597 42.3822C13.2253 45.8239 16.1427 49.0533 19.4636 49.5822C21.4737 49.8606 23.499 50 25.5062 50C27.5135 50 29.5388 49.8606 31.5256 49.5861C34.8704 49.0533 37.7878 45.8244 38.0533 42.3844C38.2443 39.8439 38.4347 37.3544 38.6246 34.9189Z" fill="url(#paint11_linear_29_102)"/>
<path d="M25.5062 26.9255C29.2284 26.9255 32.2564 24.0366 32.2564 20.4855C32.2564 16.9344 29.2284 14.0455 25.5062 14.0455C21.7841 14.0455 18.7561 16.9344 18.7561 20.4855C18.7567 24.0366 21.7847 26.9255 25.5062 26.9255Z" fill="url(#paint12_linear_29_102)"/>
<path d="M11.2821 42.4972C11.0917 39.96 10.9013 37.4728 10.7091 35.0117C10.6567 34.2378 10.7702 33.4628 11.0195 32.7239C11.1418 32.3611 11.2972 32.0072 11.4813 31.6661C11.0917 31.6528 10.7027 31.6356 10.3137 31.6356H10.3131C7.98097 31.6356 5.64415 31.8778 3.36731 32.3544C1.409 32.8061 -0.119573 34.7706 0.00737111 36.65C0.153531 38.5256 0.299692 40.4306 0.44527 42.3739C0.657232 45.1178 2.98881 47.6928 5.64357 48.1156C7.20068 48.3311 8.76418 48.4389 10.3131 48.4389C11.5069 48.4389 12.7088 48.3739 13.8984 48.2472C13.6044 47.9322 13.3336 47.5967 13.0814 47.2472C12.0746 45.8528 11.4143 44.2106 11.2821 42.4972Z" fill="url(#paint13_linear_29_102)"/>
<path d="M10.3131 30.0767C13.2352 30.0767 15.6122 27.8089 15.6122 25.0211C15.6122 22.2333 13.2352 19.9655 10.3131 19.9655C7.3911 19.9655 5.0141 22.2333 5.0141 25.0211C5.0141 27.8089 7.3911 30.0767 10.3131 30.0767Z" fill="url(#paint14_linear_29_102)"/>
<path d="M47.0844 32.8794C44.8349 32.4078 42.5389 32.1705 40.248 32.1705L40.2475 32.7055V33.8005C40.308 34.2094 40.3301 34.6239 40.3022 35.0383C40.2841 35.2716 40.2655 35.5122 40.2475 35.7466V38.8183H40.0105C39.9173 40.0339 39.8247 41.2611 39.7309 42.5022C39.5976 44.2278 38.9262 45.8822 37.9025 47.2839C37.7773 47.4555 37.6468 47.6233 37.5112 47.7866C38.4237 47.8616 39.3379 47.9044 40.2475 47.9044C41.7702 47.9044 43.3063 47.7989 44.8128 47.5905C47.2399 47.2039 49.3624 44.8483 49.5563 42.3372C49.7025 40.3922 49.848 38.4866 49.9936 36.6216C50.1037 34.9794 48.7713 33.2683 47.0844 32.8794Z" fill="url(#paint15_linear_29_102)"/>
<path d="M36.7554 28.8144C37.0722 28.9972 37.3755 29.2011 37.6603 29.4294C38.426 29.84 39.3076 30.0772 40.2469 30.0772C43.169 30.0772 45.546 27.8094 45.546 25.0217C45.546 22.2339 43.169 19.9661 40.2469 19.9661C37.3249 19.9661 34.9479 22.2339 34.9479 25.0217C34.9479 26.5322 35.6501 27.8872 36.7554 28.8144Z" fill="url(#paint16_linear_29_102)"/>
<defs>
<linearGradient id="paint0_linear_29_102" x1="15.2454" y1="9.07256" x2="27.2205" y2="9.41371" gradientUnits="userSpaceOnUse">
<stop stop-color="#FE6700"/>
<stop offset="1" stop-color="#FF0049"/>
</linearGradient>
<linearGradient id="paint1_linear_29_102" x1="35.1245" y1="13.386" x2="47.189" y2="13.7366" gradientUnits="userSpaceOnUse">
<stop stop-color="#FE6700"/>
<stop offset="1" stop-color="#FF0049"/>
</linearGradient>
<linearGradient id="paint2_linear_29_102" x1="41.7994" y1="1.10153" x2="43.8356" y2="1.14553" gradientUnits="userSpaceOnUse">
<stop stop-color="#FE6700"/>
<stop offset="1" stop-color="#FF0049"/>
</linearGradient>
<linearGradient id="paint3_linear_29_102" x1="44.5502" y1="3.72323" x2="46.587" y2="3.76737" gradientUnits="userSpaceOnUse">
<stop stop-color="#FE6700"/>
<stop offset="1" stop-color="#FF0049"/>
</linearGradient>
<linearGradient id="paint4_linear_29_102" x1="41.8" y1="3.72634" x2="43.8356" y2="3.77032" gradientUnits="userSpaceOnUse">
<stop stop-color="#FE6700"/>
<stop offset="1" stop-color="#FF0049"/>
</linearGradient>
<linearGradient id="paint5_linear_29_102" x1="44.5503" y1="1.0984" x2="46.587" y2="1.14255" gradientUnits="userSpaceOnUse">
<stop stop-color="#FE6700"/>
<stop offset="1" stop-color="#FF0049"/>
</linearGradient>
<linearGradient id="paint6_linear_29_102" x1="1.89817" y1="8.51956" x2="3.93378" y2="8.56355" gradientUnits="userSpaceOnUse">
<stop stop-color="#FE6700"/>
<stop offset="1" stop-color="#FF0049"/>
</linearGradient>
<linearGradient id="paint7_linear_29_102" x1="4.64904" y1="11.1413" x2="6.68521" y2="11.1854" gradientUnits="userSpaceOnUse">
<stop stop-color="#FE6700"/>
<stop offset="1" stop-color="#FF0049"/>
</linearGradient>
<linearGradient id="paint8_linear_29_102" x1="1.89817" y1="11.1444" x2="3.93378" y2="11.1883" gradientUnits="userSpaceOnUse">
<stop stop-color="#FE6700"/>
<stop offset="1" stop-color="#FF0049"/>
</linearGradient>
<linearGradient id="paint9_linear_29_102" x1="4.64904" y1="8.51943" x2="6.68521" y2="8.56343" gradientUnits="userSpaceOnUse">
<stop stop-color="#FE6700"/>
<stop offset="1" stop-color="#FF0049"/>
</linearGradient>
<linearGradient id="paint10_linear_29_102" x1="9.63333" y1="3.6839" x2="15.4397" y2="3.80938" gradientUnits="userSpaceOnUse">
<stop stop-color="#FE6700"/>
<stop offset="1" stop-color="#FF0049"/>
</linearGradient>
<linearGradient id="paint11_linear_29_102" x1="12.904" y1="40.418" x2="38.3655" y2="41.0653" gradientUnits="userSpaceOnUse">
<stop stop-color="#FE6700"/>
<stop offset="1" stop-color="#FF0049"/>
</linearGradient>
<linearGradient id="paint12_linear_29_102" x1="19.0261" y1="21.1295" x2="32.1209" y2="21.4125" gradientUnits="userSpaceOnUse">
<stop stop-color="#FE6700"/>
<stop offset="1" stop-color="#FF0049"/>
</linearGradient>
<linearGradient id="paint13_linear_29_102" x1="0.277968" y1="40.8774" x2="13.7613" y2="41.1073" gradientUnits="userSpaceOnUse">
<stop stop-color="#FE6700"/>
<stop offset="1" stop-color="#FF0049"/>
</linearGradient>
<linearGradient id="paint14_linear_29_102" x1="5.22606" y1="25.5267" x2="15.5058" y2="25.7488" gradientUnits="userSpaceOnUse">
<stop stop-color="#FE6700"/>
<stop offset="1" stop-color="#FF0049"/>
</linearGradient>
<linearGradient id="paint15_linear_29_102" x1="37.7609" y1="40.8242" x2="49.877" y2="41.0225" gradientUnits="userSpaceOnUse">
<stop stop-color="#FE6700"/>
<stop offset="1" stop-color="#FF0049"/>
</linearGradient>
<linearGradient id="paint16_linear_29_102" x1="35.1598" y1="25.5272" x2="45.4395" y2="25.7494" gradientUnits="userSpaceOnUse">
<stop stop-color="#FE6700"/>
<stop offset="1" stop-color="#FF0049"/>
</linearGradient>
</defs>
</svg>
