<svg xmlns="http://www.w3.org/2000/svg" width="100%" height="auto" viewBox="0 0 600 190" fill="none">
    <path d="M0 54.499L33.3333 43.1856C66.6667 32.0416 133.333 9.16056 200 2.5081C266.667 -4.3986 333.333 4.92332 400 7.04194C466.667 9.16056 533.333 4.92332 566.667 2.5081L600 0.262361V54.499H566.667C533.333 54.499 466.667 54.499 400 54.499C333.333 54.499 266.667 54.499 200 54.499C133.333 54.499 66.6667 54.499 33.3333 54.499H0Z" fill="url(#paint0_linear_154_19)"/>
    <path d="M0.342773 54.4021L0.75 54.287H600V114.087H0V54.499L0.342773 54.4021Z" fill="url(#paint1_linear_154_19)"/>
    <path d="M0 190L33.3333 183.524C66.6667 177.145 133.333 164.048 200 160.24C266.667 156.287 333.333 161.623 400 162.835C466.667 164.048 533.333 161.623 566.667 160.24L600 158.955V112.387H566.667C533.333 112.387 466.667 112.387 400 112.387C333.333 112.387 266.667 112.387 200 112.387C133.333 112.387 66.6667 112.387 33.3333 112.387H0V190Z" fill="url(#paint2_linear_154_19)"/>
    <defs>
        <linearGradient id="paint0_linear_154_19" x1="0" y1="27.2495" x2="600" y2="27.2495" gradientUnits="userSpaceOnUse">
            <stop stop-color="#FE6700"/>
            <stop offset="1" stop-color="#FF0049"/>
        </linearGradient>
        <linearGradient id="paint1_linear_154_19" x1="-1.89913e-06" y1="84.2379" x2="593.25" y2="84.238" gradientUnits="userSpaceOnUse">
            <stop stop-color="#FE6700"/>
            <stop offset="1" stop-color="#FF0049"/>
        </linearGradient>
        <linearGradient id="paint2_linear_154_19" x1="0" y1="151.193" x2="600" y2="151.193" gradientUnits="userSpaceOnUse">
            <stop stop-color="#FF6400"/>
            <stop offset="1" stop-color="#FF0046"/>
        </linearGradient>
    </defs>
</svg>
