<svg width="100%" height="auto" viewBox="0 0 1200 448" fill="none" xmlns="http://www.w3.org/2000/svg">
  <path d="M0 128.5L66.6667 101.825C133.333 75.5491 266.667 21.5991 400 5.9137C533.333 -10.3712 666.667 11.6084 800 16.6038C933.333 21.5991 1066.67 11.6084 1133.33 5.9137L1200 0.618606V128.5H1133.33C1066.67 128.5 933.333 128.5 800 128.5C666.667 128.5 533.333 128.5 400 128.5C266.667 128.5 133.333 128.5 66.6667 128.5H0Z" fill="url(#paint0_linear_29_27)"/>
  <path d="M0.685547 128.271L1.5 128H1200V269H0V128.5L0.685547 128.271Z" fill="url(#paint1_linear_29_27)"/>
  <path d="M0 447.99L66.6667 432.721C133.333 417.681 266.667 386.799 400 377.821C533.333 368.499 666.667 381.081 800 383.94C933.333 386.799 1066.67 381.081 1133.33 377.821L1200 374.79V264.99H1133.33C1066.67 264.99 933.333 264.99 800 264.99C666.667 264.99 533.333 264.99 400 264.99C266.667 264.99 133.333 264.99 66.6667 264.99H0V447.99Z" fill="url(#paint2_linear_29_27)"/>
  <defs>
    <linearGradient id="paint0_linear_29_27" x1="0" y1="64.25" x2="1200" y2="64.25" gradientUnits="userSpaceOnUse">
      <stop stop-color="#FE6700"/>
      <stop offset="1" stop-color="#FF0049"/>
    </linearGradient>
    <linearGradient id="paint1_linear_29_27" x1="-3.79827e-06" y1="198.62" x2="1186.5" y2="198.62" gradientUnits="userSpaceOnUse">
      <stop stop-color="#FE6700"/>
      <stop offset="1" stop-color="#FF0049"/>
    </linearGradient>
    <linearGradient id="paint2_linear_29_27" x1="0" y1="356.49" x2="1200" y2="356.49" gradientUnits="userSpaceOnUse">
      <stop stop-color="#FF6400"/>
      <stop offset="1" stop-color="#FF0046"/>
    </linearGradient>
  </defs>
</svg>
