<svg width="100%" height="auto" viewBox="0 0 1200 451" preserveAspectRatio="xMidYMid meet" xmlns="http://www.w3.org/2000/svg">
    <path d="M0 0L50 3.72656C100 7.73438 200 14.7656 300 37.4766C400 59.7656 500 97.7344 600 97.5234C700 97.7344 800 59.7656 900 37.4766C1000 14.7656 1100 7.73438 1150 3.72656L1200 0V180H1150C1100 180 1000 180 900 180C800 180 700 180 600 180C500 180 400 180 300 180C200 180 100 180 50 180H0V0Z" fill="url(#paint0_linear_151_18)"/>
    <rect y="161" width="100%" height="130" fill="url(#paint1_linear_151_18)"/>
    <path d="M0 387.784L66.6667 380.843C133.333 374.162 266.667 359.892 400 377.405C533.333 394.919 666.667 442.919 800 450.054C933.333 457.189 1066.67 422.162 1133.33 405.103L1200 387.784V284H1133.33C1066.67 284 933.333 284 800 284C666.667 284 533.333 284 400 284C266.667 284 133.333 284 66.6667 284H0V387.784Z" fill="url(#paint2_linear_151_18)"/>
    <defs>
        <linearGradient id="paint0_linear_151_18" x1="0" y1="90" x2="1200" y2="90" gradientUnits="userSpaceOnUse">
            <stop stop-color="#FE6700"/>
            <stop offset="1" stop-color="#FF0049"/>
        </linearGradient>
        <linearGradient id="paint1_linear_151_18" x1="0" y1="226" x2="1200" y2="226" gradientUnits="userSpaceOnUse">
            <stop stop-color="#FF6400"/>
            <stop offset="1" stop-color="#FF0046"/>
        </linearGradient>
        <linearGradient id="paint2_linear_151_18" x1="0" y1="367.5" x2="1200" y2="367.5" gradientUnits="userSpaceOnUse">
            <stop stop-color="#FE6700"/>
            <stop offset="1" stop-color="#FF0049"/>
        </linearGradient>
    </defs>
</svg>
